<svg width="24" height="24" viewBox="0 0 24 24" fill="none" xmlns="http://www.w3.org/2000/svg">
<path d="M23.498 6.186C23.498 6.186 23.256 4.512 22.54 3.79C21.608 2.834 20.584 2.83 20.11 2.776C16.82 2.548 12.005 2.548 12.005 2.548H11.995C11.995 2.548 7.18 2.548 3.89 2.776C3.416 2.83 2.392 2.834 1.46 3.79C0.744 4.512 0.502 6.186 0.502 6.186S0.25 8.138 0.25 10.09V11.91C0.25 13.862 0.5 15.814 0.5 15.814S0.742 17.488 1.458 18.21C2.39 19.166 3.606 19.134 4.154 19.238C6.11 19.428 12 19.502 12 19.502S16.82 19.494 20.11 19.268C20.584 19.214 21.608 19.21 22.54 18.254C23.256 17.532 23.498 15.858 23.498 15.858S23.75 13.906 23.75 11.954V10.134C23.75 8.182 23.498 6.186 23.498 6.186ZM9.75 15.02V8.98L15.996 12.004L9.75 15.02Z" fill="currentColor"/>
</svg>